<svg xmlns="http://www.w3.org/2000/svg" viewBox="0 0 26.01 36.83"><defs><style>.cls-1{fill:none;}.cls-2{fill:#616e7d;}.cls-3{fill:#fff;}.cls-4{fill:#aad4c8;}.cls-5{fill:#82bfab;}</style></defs><title>bannerAsset 1</title><g id="Layer_2" data-name="Layer 2"><g id="Object"><rect class="cls-1" x="7.52" y="1.15" width="11.24" height="0.58"/><path class="cls-2" d="M6.38,4.23V1.72H1.87A1.88,1.88,0,0,0,0,3.6V35a1.88,1.88,0,0,0,1.87,1.87H24.14a1.88,1.88,0,0,0,1.33-.55A1.91,1.91,0,0,0,26,35V3.6a1.92,1.92,0,0,0-.54-1.33,1.88,1.88,0,0,0-1.33-.55H19.91V4.23h4.23V34H1.87V4.23Z"/><rect class="cls-2" x="7.52" y="1.72" width="11.24" height="2.5"/><path class="cls-3" d="M1.87,4.23V34H24.14V4.23H19.91V6a.58.58,0,0,1-.58.57H7a.58.58,0,0,1-.41-.17A.58.58,0,0,1,6.38,6V4.23Zm20.4,24.23H3.74v-2H22.27Zm0-4.5H3.74V22H22.27Zm0-4.51H3.74v-2H22.27Zm0-4.5H3.74V13H22.27Zm0-6.5v2H3.74v-2Z"/><rect class="cls-3" x="7.52" y="4.23" width="11.24" height="1.21"/><path class="cls-4" d="M7,0a.58.58,0,0,0-.41.17.58.58,0,0,0-.16.4V6a.58.58,0,0,0,.16.4A.58.58,0,0,0,7,6.58H19.33A.58.58,0,0,0,19.91,6V.57A.58.58,0,0,0,19.33,0ZM18.76,1.72V5.44H7.52V1.15H18.76Z"/><rect class="cls-5" x="3.74" y="8.45" width="18.53" height="1.99"/><rect class="cls-5" x="3.74" y="12.96" width="18.53" height="1.99"/><rect class="cls-5" x="3.74" y="17.46" width="18.53" height="1.99"/><rect class="cls-5" x="3.74" y="21.97" width="18.53" height="1.99"/><rect class="cls-5" x="3.74" y="26.47" width="18.53" height="1.99"/></g></g></svg>