<svg xmlns="http://www.w3.org/2000/svg" viewBox="0 0 24 24"><defs><style>.cls-1{fill:none;}.cls-2{fill:#a8b1c7;opacity:0.3;isolation:isolate;}.cls-3{fill:#5b6e88;}</style></defs><title>bannerAsset 2</title><g id="Layer_2" data-name="Layer 2"><g id="Layer_1-2" data-name="Layer 1"><path class="cls-1" d="M0,0H24V24H0Z"/><path class="cls-2" d="M13,4H6V20H18V9H13Zm3,14H8V16h8Zm0-6v2H8V12Z"/><path class="cls-3" d="M8,16h8v2H8Zm0-4h8v2H8ZM14,2H6A2,2,0,0,0,4,4V20a2,2,0,0,0,2,2H18a2,2,0,0,0,2-2V8Zm4,18H6V4h7V9h5Z"/></g></g></svg>