<svg xmlns="http://www.w3.org/2000/svg" xmlns:xlink="http://www.w3.org/1999/xlink" viewBox="0 0 613.9 90.98"><defs><style>.cls-1{isolation:isolate;}.cls-2{mix-blend-mode:multiply;}.cls-3{fill:#4ac7b3;}.cls-4{fill:#2dabeb;}.cls-5{fill:url(#linear-gradient);}</style><linearGradient id="linear-gradient" x1="-44.45" y1="112.59" x2="144.48" y2="-33.31" gradientUnits="userSpaceOnUse"><stop offset="0" stop-color="#4ac7b3"/><stop offset="1" stop-color="#0091fc"/></linearGradient></defs><title>bannerAsset 1</title><g class="cls-1"><g id="Layer_2" data-name="Layer 2"><g id="graphics"><g class="cls-2"><path class="cls-3" d="M146.17,11.36H153a6.4,6.4,0,0,1,4.82,2.11,6.67,6.67,0,0,1,2,4.72v39.2q0,14.27-8.24,19.29a33.71,33.71,0,0,1-17.89,5A31.63,31.63,0,0,1,123.45,80a16.87,16.87,0,0,1-8-5.53q-5.84-7.43-5.83-20.3,0-12.66,5.83-20.3A19.59,19.59,0,0,1,139.73,28a19.21,19.21,0,0,1,6.44,6.23ZM123.25,53.57q0,8,3,12.26a10,10,0,0,0,8.64,4.22,9.78,9.78,0,0,0,8.44-4.22q2.82-4.23,2.82-12.26,0-7.24-3-11.46a10.48,10.48,0,0,0-8.64-4,9.59,9.59,0,0,0-8.24,4.22Q123.26,46.33,123.25,53.57Z"/><path class="cls-3" d="M201.49,64.22h10a22,22,0,0,1-8.44,12.87q-6.24,4.62-15.68,4.62-11.46,0-17.89-7.44Q163.1,67,163.1,53.57q0-12.87,6.23-20.1Q175.77,26,187.22,26q12.06,0,18.69,7.24,6.43,7.44,6.44,20.7v2.21a3.34,3.34,0,0,1-.21,1.41H177.37q.19,6.22,3,9.24,2.61,3.23,7.83,3.22a11.37,11.37,0,0,0,5.83-1.41,2.71,2.71,0,0,0,1.11-.7l1.1-1.11a4.48,4.48,0,0,1,1.51-1.6A6,6,0,0,1,201.49,64.22ZM177.37,48.54h20.5c-.27-3.62-1.2-6.3-2.81-8s-4.22-2.81-7.44-2.81a9.79,9.79,0,0,0-7.23,2.81Q177.57,43.32,177.37,48.54Z"/><path class="cls-3" d="M263.25,80.7h-7a6.54,6.54,0,0,1-6.83-6.83V46.53c0-3.21-1-5.56-2.92-7a10.49,10.49,0,0,0-6.53-2.21,10.08,10.08,0,0,0-6.43,2.21c-1.88,1.47-2.81,3.82-2.81,7V80.7H216.61V49.35q0-13.66,7.14-18.3a31.22,31.22,0,0,1,15.78-5,30.28,30.28,0,0,1,16.28,4.62q7.44,4.64,7.44,18.7Z"/><path class="cls-3" d="M291.24,80.7a104.46,104.46,0,0,1-14.38-.2q-7.74-.6-7.73-9.85V11.56h7.23a6.35,6.35,0,0,1,4.62,2,6.58,6.58,0,0,1,2,4.82v9.05h8.25v2.81a6.51,6.51,0,0,1-2,4.92,6.75,6.75,0,0,1-4.83,1.91H283V66.83q0,3.42,4,3.42h4.22Z"/><path class="cls-3" d="M328.5,78.49a24.55,24.55,0,0,1-8.9,2.72,80.57,80.57,0,0,1-8.3.5,20.9,20.9,0,0,1-12.6-3.92q-5.42-3.92-5.41-13,0-8.43,4.91-12.06a28.08,28.08,0,0,1,12.5-4.82,11.84,11.84,0,0,0,2.4-.3,31.46,31.46,0,0,1,3.2-.5q8.79-1.22,8.8-5.23A3.8,3.8,0,0,0,322,38a20.65,20.65,0,0,0-5.7-.91,14.37,14.37,0,0,0-5,.81,5.45,5.45,0,0,0-3.2,3H294.69a15.57,15.57,0,0,1,5.61-10.25Q305.7,26,315.7,26q11.21,0,16.8,3.82a12.91,12.91,0,0,1,5.8,11.25V59.4q0,8-2.9,12.56A17.76,17.76,0,0,1,328.5,78.49Zm-3.2-24.72a37.38,37.38,0,0,1-7.8,2.61l-4.6,1A11.75,11.75,0,0,0,307.7,60a8.17,8.17,0,0,0-1.4,4.42,6.56,6.56,0,0,0,1.8,4.83,7.56,7.56,0,0,0,5.2,1.6c3.73,0,6.67-1.07,8.8-3.21s3.2-5.09,3.2-8.85Z"/><path class="cls-3" d="M343.19,11.56h7.24a6.77,6.77,0,0,1,4.82,1.91,6.25,6.25,0,0,1,2,4.72V80.7H343.19Z"/><path class="cls-4" d="M396.77,42.31a9.6,9.6,0,0,0-8.24-4.22,10.15,10.15,0,0,0-8.64,4q-3,4-3,11.06V80.7H363.2V11.56H370a6.86,6.86,0,0,1,6.83,6.83V34.27a16,16,0,0,1,10.25-7.64,20.4,20.4,0,0,1,12.67.81,22.51,22.51,0,0,1,9.44,7.63q3.82,5.24,3.82,14.48V80.7H399.59V53a27.72,27.72,0,0,0-.51-5.52A13.67,13.67,0,0,0,396.77,42.31Z"/><path class="cls-4" d="M454.71,64.22h10.05q-2.22,8.44-8.44,12.87-6.24,4.62-15.68,4.62-11.46,0-17.89-7.44-6.44-7.23-6.43-20.7,0-12.87,6.23-20.1Q429,26,440.44,26q12.06,0,18.69,7.24,6.44,7.44,6.43,20.7v2.21a3.37,3.37,0,0,1-.2,1.41H430.59q.2,6.22,3,9.24c1.74,2.15,4.36,3.22,7.84,3.22a11.37,11.37,0,0,0,5.83-1.41,2.77,2.77,0,0,0,1.11-.7l1.1-1.11a4.48,4.48,0,0,1,1.51-1.6A6,6,0,0,1,454.71,64.22ZM430.59,48.54h20.5c-.27-3.62-1.2-6.3-2.81-8s-4.22-2.81-7.44-2.81a9.83,9.83,0,0,0-7.24,2.81C431.73,42.38,430.72,45.06,430.59,48.54Z"/><path class="cls-4" d="M504,78.49a24.69,24.69,0,0,1-8.94,2.72,81.28,81.28,0,0,1-8.34.5,21.09,21.09,0,0,1-12.67-3.92q-5.42-3.92-5.42-13,0-8.43,4.92-12.06a28.34,28.34,0,0,1,12.56-4.82,11.93,11.93,0,0,0,2.42-.3,31.68,31.68,0,0,1,3.21-.5q8.85-1.22,8.85-5.23A3.81,3.81,0,0,0,497.47,38a20.84,20.84,0,0,0-5.73-.91,14.52,14.52,0,0,0-5,.81,5.49,5.49,0,0,0-3.22,3H470a15.55,15.55,0,0,1,5.63-10.25Q481.09,26,491.14,26q11.25,0,16.89,3.82a12.9,12.9,0,0,1,5.82,11.25V59.4q0,8-2.91,12.56A17.85,17.85,0,0,1,504,78.49Zm-3.21-24.72A37.66,37.66,0,0,1,493,56.38l-4.62,1A11.83,11.83,0,0,0,483.1,60a8.19,8.19,0,0,0-1.41,4.42,6.53,6.53,0,0,0,1.81,4.83,7.65,7.65,0,0,0,5.23,1.6q5.63,0,8.84-3.21t3.22-8.85Z"/><path class="cls-4" d="M518.53,11.56h7.23a6.79,6.79,0,0,1,4.83,1.91,6.29,6.29,0,0,1,2,4.72V80.7H518.53Z"/><path class="cls-4" d="M560.79,80.7a104.46,104.46,0,0,1-14.38-.2q-7.74-.6-7.74-9.85V11.56h7.24a6.35,6.35,0,0,1,4.62,2,6.58,6.58,0,0,1,2,4.82v9.05h8.25v2.81a6.48,6.48,0,0,1-2,4.92A6.71,6.71,0,0,1,554,37.08h-1.41V66.83q0,3.42,4,3.42h4.23Z"/><path class="cls-4" d="M597.62,42.31a9.61,9.61,0,0,0-8.25-4.22,10.15,10.15,0,0,0-8.64,4q-3,4-3,11.06V80.7H564.05V11.56h6.83a6.86,6.86,0,0,1,6.84,6.83V34.27A16,16,0,0,1,588,26.63a20.37,20.37,0,0,1,12.66.81,22.59,22.59,0,0,1,9.45,7.63q3.81,5.24,3.82,14.48V80.7H600.43V53a28.52,28.52,0,0,0-.5-5.52A14,14,0,0,0,597.62,42.31Z"/></g><path class="cls-5" d="M58.93,1.59c-1.67.53-9.12,1.08-9.94,1.08A118.92,118.92,0,0,1,27.57.46,23,23,0,0,0,0,24C.4,40.38,6.33,57,11,75.77c1.37,5.5,3.47,10.5,7.28,13.18,3.06,2.16,7,2.76,11.85,1,6.05-2.22,13.79-7.58,18.9-11.46,6,8.49,11.59,12.57,17,12.44,8.77-.2,11.91-8.74,13.51-15.15,3.55-14.22,9.69-37.6,11-51.78C92.08,8.69,76.14-3.87,58.93,1.59ZM42.14,76a94.61,94.61,0,0,1-10.72,7c-5.55,2.87-9.39,1.71-11.09-.53-1.16-1.52-2.35-4-3.39-8.18C14.26,63.56,9.33,47.57,7.17,34.72A55.61,55.61,0,0,1,6.09,23.55a16.83,16.83,0,0,1,5.37-12.93A17.05,17.05,0,0,1,26.37,6.43a130.3,130.3,0,0,0,19.1,2.26c-5.37,3.76-8.32,6.18-14.37,4.63a3.05,3.05,0,0,0-1.52,5.91C44.27,23,46.05,10.79,65.06,6.52c8.7-.9,16.17,3.73,18.54,10.26C90.12,34.72,58.91,64,42.14,76Zm31.57-1.72c-3.74,15-11,13-19.85.4,9.81-8,20.15-18.36,27.34-28.94C78.79,55.92,75.69,66.34,73.71,74.29Z"/></g></g></g></svg>