<svg xmlns="http://www.w3.org/2000/svg" xmlns:xlink="http://www.w3.org/1999/xlink" viewBox="0 0 621.53 110.16"><defs><style>.cls-1{fill:#4ac7b3;}.cls-2{fill:#2dabeb;}.cls-3{fill:url(#linear-gradient);}.cls-4{fill:url(#linear-gradient-2);}.cls-5{fill:url(#linear-gradient-3);}.cls-6{fill:url(#linear-gradient-5);}.cls-7{fill:url(#linear-gradient-6);}.cls-8{fill:url(#linear-gradient-7);}.cls-9{fill:url(#linear-gradient-8);}.cls-10{fill:url(#linear-gradient-9);}.cls-11{fill:url(#linear-gradient-10);}.cls-12{fill:url(#linear-gradient-16);}</style><linearGradient id="linear-gradient" x1="-51.87" y1="-57.83" x2="168.63" y2="112.44" gradientTransform="matrix(1, 0, 0, -1, 0, 73.55)" gradientUnits="userSpaceOnUse"><stop offset="0" stop-color="#4ac7b3"/><stop offset="1" stop-color="#0091fc"/></linearGradient><linearGradient id="linear-gradient-2" x1="120.37" y1="96.5" x2="647.71" y2="96.5" gradientTransform="matrix(1, 0, 0, 1, 0, 0)" xlink:href="#linear-gradient"/><linearGradient id="linear-gradient-3" x1="120.37" y1="100.46" x2="647.71" y2="100.46" gradientTransform="matrix(1, 0, 0, 1, 0, 0)" xlink:href="#linear-gradient"/><linearGradient id="linear-gradient-5" x1="120.37" y1="98.46" x2="647.71" y2="98.46" gradientTransform="matrix(1, 0, 0, 1, 0, 0)" xlink:href="#linear-gradient"/><linearGradient id="linear-gradient-6" x1="120.37" y1="96.38" x2="647.71" y2="96.38" gradientTransform="matrix(1, 0, 0, 1, 0, 0)" xlink:href="#linear-gradient"/><linearGradient id="linear-gradient-7" x1="120.37" y1="96.52" x2="647.71" y2="96.52" gradientTransform="matrix(1, 0, 0, 1, 0, 0)" xlink:href="#linear-gradient"/><linearGradient id="linear-gradient-8" x1="120.37" y1="100.44" x2="647.71" y2="100.44" gradientTransform="matrix(1, 0, 0, 1, 0, 0)" xlink:href="#linear-gradient"/><linearGradient id="linear-gradient-9" x1="120.37" y1="100.3" x2="647.71" y2="100.3" gradientTransform="matrix(1, 0, 0, 1, 0, 0)" xlink:href="#linear-gradient"/><linearGradient id="linear-gradient-10" x1="120.37" y1="100.42" x2="647.71" y2="100.42" gradientTransform="matrix(1, 0, 0, 1, 0, 0)" xlink:href="#linear-gradient"/><linearGradient id="linear-gradient-16" x1="120.37" y1="100.4" x2="647.71" y2="100.4" gradientTransform="matrix(1, 0, 0, 1, 0, 0)" xlink:href="#linear-gradient"/></defs><title>bannerAsset 4</title><g id="Layer_2" data-name="Layer 2"><g id="Layer_1-2" data-name="Layer 1"><g id="graphics"><path class="cls-1" d="M153.77,2.14h6.83a6.38,6.38,0,0,1,4.82,2.11,6.73,6.73,0,0,1,2,4.72v39.2q0,14.27-8.24,19.29a33.73,33.73,0,0,1-17.89,5,31.76,31.76,0,0,1-10.24-1.68,16.88,16.88,0,0,1-8-5.53q-5.85-7.44-5.83-20.3,0-12.66,5.83-20.3a19.57,19.57,0,0,1,24.28-5.87A19.28,19.28,0,0,1,153.77,25ZM130.85,44.35q0,8,3,12.26a10,10,0,0,0,8.64,4.22,9.8,9.8,0,0,0,8.44-4.22q2.82-4.23,2.82-12.26,0-7.24-3-11.46a10.49,10.49,0,0,0-8.64-4,9.58,9.58,0,0,0-8.24,4.22Q130.86,37.1,130.85,44.35Z"/><path class="cls-1" d="M209.09,55h10a22.08,22.08,0,0,1-8.44,12.87q-6.24,4.62-15.68,4.62-11.46,0-17.89-7.44-6.39-7.27-6.38-20.7,0-12.87,6.23-20.1,6.44-7.47,17.89-7.47,12.06,0,18.69,7.24,6.42,7.44,6.44,20.7v2.21a3.39,3.39,0,0,1-.21,1.41H185q.18,6.21,3,9.24,2.61,3.22,7.83,3.22a11.44,11.44,0,0,0,5.83-1.41,2.76,2.76,0,0,0,1.11-.7l1.1-1.11a4.45,4.45,0,0,1,1.51-1.6A6,6,0,0,1,209.09,55ZM185,39.32h20.5c-.27-3.62-1.2-6.3-2.81-8a10.1,10.1,0,0,0-7.44-2.81A9.75,9.75,0,0,0,188,31.32Q185.17,34.1,185,39.32Z"/><path class="cls-1" d="M270.85,71.48h-7A6.54,6.54,0,0,1,257,65.24a5.8,5.8,0,0,1,0-.59V37.31c0-3.21-1-5.56-2.92-7a10.45,10.45,0,0,0-6.53-2.21,10.06,10.06,0,0,0-6.43,2.21c-1.88,1.47-2.81,3.82-2.81,7V71.48H224.21V40.13q0-13.67,7.14-18.3a31.09,31.09,0,0,1,15.78-5,30.25,30.25,0,0,1,16.28,4.62q7.44,4.64,7.44,18.7Z"/><path class="cls-1" d="M298.84,71.48a106.15,106.15,0,0,1-14.38-.2q-7.74-.6-7.73-9.85V2.34H284a6.33,6.33,0,0,1,4.62,2,6.6,6.6,0,0,1,2,4.82v9.05h8.25V21a6.56,6.56,0,0,1-2,4.92A6.78,6.78,0,0,1,292,27.85h-1.4V57.61q0,3.42,4,3.42h4.22Z"/><path class="cls-1" d="M336.1,69.27A24.69,24.69,0,0,1,327.2,72a82.33,82.33,0,0,1-8.3.5,21,21,0,0,1-12.6-3.92q-5.43-3.93-5.41-13,0-8.43,4.91-12.06a27.87,27.87,0,0,1,12.5-4.82,12.22,12.22,0,0,0,2.4-.3,28.41,28.41,0,0,1,3.2-.5q8.79-1.23,8.8-5.23a3.79,3.79,0,0,0-3.1-3.88,20.45,20.45,0,0,0-5.7-.91,14.14,14.14,0,0,0-5,.81,5.41,5.41,0,0,0-3.2,3H302.29a15.5,15.5,0,0,1,5.61-10.25q5.4-4.65,15.4-4.65,11.2,0,16.8,3.82a12.92,12.92,0,0,1,5.8,11.25V50.18q0,8-2.9,12.56A17.82,17.82,0,0,1,336.1,69.27Zm-3.2-24.72a37.84,37.84,0,0,1-7.8,2.61l-4.6,1a11.62,11.62,0,0,0-5.2,2.62,8.09,8.09,0,0,0-1.4,4.42A6.53,6.53,0,0,0,315.7,60a7.54,7.54,0,0,0,5.2,1.6q5.6,0,8.8-3.21t3.2-8.85Z"/><path class="cls-1" d="M350.79,2.34H358a6.74,6.74,0,0,1,4.82,1.91,6.27,6.27,0,0,1,2,4.72V71.48H350.79Z"/><path class="cls-2" d="M404.37,33.09a9.6,9.6,0,0,0-8.24-4.22,10.11,10.11,0,0,0-8.64,4q-3,4-3,11.06V71.48H370.8V2.34h6.8a6.86,6.86,0,0,1,6.83,6.83V25.05a16,16,0,0,1,10.25-7.64,20.37,20.37,0,0,1,12.67.81,22.55,22.55,0,0,1,9.44,7.63q3.81,5.24,3.82,14.48V71.48H407.19V43.78a28.28,28.28,0,0,0-.51-5.52A13.64,13.64,0,0,0,404.37,33.09Z"/><path class="cls-2" d="M462.31,55h10.05a22.1,22.1,0,0,1-8.44,12.87q-6.24,4.62-15.68,4.62-11.46,0-17.89-7.44-6.45-7.23-6.43-20.7,0-12.87,6.23-20.1,6.45-7.47,17.89-7.47,12.06,0,18.69,7.24,6.43,7.44,6.43,20.7v2.21a3.58,3.58,0,0,1-.2,1.41H438.19q.19,6.21,3,9.24c1.74,2.15,4.36,3.22,7.84,3.22a11.44,11.44,0,0,0,5.83-1.41,3,3,0,0,0,1.11-.7l1.1-1.11a4.45,4.45,0,0,1,1.51-1.6A5.93,5.93,0,0,1,462.31,55ZM438.19,39.32h20.5c-.27-3.62-1.2-6.3-2.81-8a10.1,10.1,0,0,0-7.44-2.81,9.81,9.81,0,0,0-7.24,2.81C439.33,33.16,438.32,35.84,438.19,39.32Z"/><path class="cls-2" d="M511.6,69.27A24.89,24.89,0,0,1,502.66,72a83.13,83.13,0,0,1-8.34.5,21.11,21.11,0,0,1-12.67-3.92q-5.43-3.93-5.42-13,0-8.43,4.92-12.06a28.15,28.15,0,0,1,12.56-4.82,12.42,12.42,0,0,0,2.42-.3,28.94,28.94,0,0,1,3.21-.5q8.85-1.23,8.85-5.23a3.82,3.82,0,0,0-3.12-3.88,20.66,20.66,0,0,0-5.73-.91,14.37,14.37,0,0,0-5,.81,5.42,5.42,0,0,0-3.22,3H477.6a15.53,15.53,0,0,1,5.63-10.25q5.46-4.65,15.51-4.65,11.25,0,16.89,3.82a12.91,12.91,0,0,1,5.82,11.25V50.18q0,8-2.91,12.56A17.93,17.93,0,0,1,511.6,69.27Zm-3.21-24.72a38.36,38.36,0,0,1-7.79,2.61l-4.62,1a11.7,11.7,0,0,0-5.28,2.62,8.1,8.1,0,0,0-1.41,4.42A6.52,6.52,0,0,0,491.1,60a7.64,7.64,0,0,0,5.23,1.6q5.63,0,8.84-3.21t3.22-8.85Z"/><path class="cls-2" d="M526.13,2.34h7.23a6.76,6.76,0,0,1,4.83,1.91,6.31,6.31,0,0,1,2,4.72V71.48H526.13Z"/><path class="cls-2" d="M568.39,71.48a106.15,106.15,0,0,1-14.38-.2q-7.74-.6-7.74-9.85V2.34h7.24a6.33,6.33,0,0,1,4.62,2,6.6,6.6,0,0,1,2,4.82v9.05h8.25V21a6.5,6.5,0,0,1-2,4.92,6.74,6.74,0,0,1-4.78,1.92h-1.41V57.61q0,3.42,4,3.42h4.23Z"/><path class="cls-2" d="M605.22,33.09A9.61,9.61,0,0,0,597,28.87a10.11,10.11,0,0,0-8.64,4q-3,4-3,11.06V71.48H571.65V2.34h6.83a6.86,6.86,0,0,1,6.84,6.83V25.05a16,16,0,0,1,10.28-7.64,20.34,20.34,0,0,1,12.66.81,22.64,22.64,0,0,1,9.45,7.63q3.81,5.24,3.82,14.48V71.48H608V43.78a29.14,29.14,0,0,0-.5-5.52A14,14,0,0,0,605.22,33.09Z"/><path class="cls-3" d="M68.8,1.86c-2,.62-10.64,1.26-11.6,1.26A139,139,0,0,1,32.2.55,26.84,26.84,0,0,0,.54,21.49,26.51,26.51,0,0,0,0,28C.49,47.14,7.41,66.53,12.86,88.44c1.6,6.42,4.05,12.25,8.5,15.38,3.57,2.52,8.17,3.22,13.83,1.17,7.06-2.59,16.09-8.85,22.06-13.38,7,9.91,13.52,14.67,19.84,14.52,10.23-.23,13.9-10.2,15.77-17.68C97,71.85,104.16,44.57,105.69,28,107.49,10.15,88.89-4.51,68.8,1.86ZM49.21,88.71A111,111,0,0,1,36.7,96.88c-6.48,3.35-11,2-13-.62C22.4,94.48,21,91.59,19.8,86.71,16.67,74.19,10.91,55.53,8.39,40.53a64.84,64.84,0,0,1-1.26-13A19.65,19.65,0,0,1,13.4,12.4,19.9,19.9,0,0,1,30.8,7.51a152,152,0,0,0,22.29,2.64c-6.26,4.39-9.71,7.21-16.77,5.4a3.56,3.56,0,0,0-1.77,6.9C51.69,26.85,53.77,12.6,76,7.62c10.15-1,18.87,4.35,21.63,12C105.2,40.53,68.78,74.7,49.21,88.71Zm36.84-2c-4.36,17.51-12.84,15.17-23.17.47C74.33,77.83,86.4,65.74,94.79,53.39c-2.81,11.88-6.43,24-8.74,33.32Z"/></g><path class="cls-4" d="M133.81,109.84v-24H120.37V83.16h30.2v2.72H137.05v24Z"/><path class="cls-5" d="M171.13,90.8a39.76,39.76,0,0,1,7.2.48,6.21,6.21,0,0,1,3.86,2.44q1.45,2,1.46,6.36c0,4.46-.86,7.24-2.56,8.36s-5,1.68-10,1.68c-4.4,0-7.52-.54-9.36-1.64s-2.76-3.7-2.76-7.84a14.23,14.23,0,0,1,1.28-6.74,5,5,0,0,1,4-2.68c1.81-.22,3.13-.35,4-.38S170,90.8,171.13,90.8Zm0,16.88c3.52,0,6-.3,7.42-.92s2.14-2.42,2.14-5.41a16.11,16.11,0,0,0-.74-5.46,3.32,3.32,0,0,0-2.84-2.25c-1.4-.18-2.52-.29-3.36-.32s-1.84,0-3,0h-.84c-3.1,0-5.2.42-6.3,1.24s-1.66,2.8-1.66,5.92.57,4.94,1.72,5.86,3.26,1.38,6.36,1.38Z"/><path class="cls-5" d="M207.13,90.8a39.76,39.76,0,0,1,7.2.48,6.21,6.21,0,0,1,3.86,2.44q1.45,2,1.46,6.36c0,4.46-.86,7.24-2.56,8.36s-5,1.68-10,1.68c-4.4,0-7.52-.54-9.36-1.64s-2.76-3.7-2.76-7.84a14.23,14.23,0,0,1,1.28-6.74,5,5,0,0,1,4-2.68c1.81-.22,3.13-.35,4-.38S206,90.8,207.13,90.8Zm0,16.88c3.52,0,6-.3,7.42-.92s2.14-2.42,2.14-5.41a16.11,16.11,0,0,0-.74-5.46,3.32,3.32,0,0,0-2.84-2.25c-1.4-.18-2.52-.29-3.36-.32s-1.84,0-3,0h-.84c-3.1,0-5.2.42-6.3,1.24s-1.66,2.8-1.66,5.92.57,4.94,1.72,5.86,3.26,1.38,6.36,1.38Z"/><path class="cls-6" d="M248.17,93.44h-13v9c0,2.11.36,3.5,1.08,4.16s2.13,1,4.24,1a9.17,9.17,0,0,0,4.24-.74c.9-.49,1.36-1.64,1.36-3.45V101.2h2.56c0,3.62-.42,6-1.26,7.17s-3,1.75-6.58,1.75q-4.41,0-6.42-1.14c-1.35-.76-2-2.48-2-5.18V93.44h-4.56V91h4.56V86.8h2.8V91h13Z"/><path class="cls-7" d="M261.56,94.76a5.12,5.12,0,0,1,3.32-3.24,19.2,19.2,0,0,1,5.84-.76q5.68,0,8.4,1.22c1.82.82,2.72,2.86,2.72,6.14v11.72H279V98.12a6.48,6.48,0,0,0-.46-2.66A2.8,2.8,0,0,0,276.9,94a10.87,10.87,0,0,0-2.63-.6c-.95-.09-2-.14-3.07-.14a21.29,21.29,0,0,0-7,.94q-2.6.93-2.6,4.58v11.08h-2.79V82.92h2.79Z"/><path class="cls-8" d="M333,109.92l-6.88.24h-3l-5.92-.24q-7.12-.72-7.12-7.65L310,97.18c0-2,0-3.53.06-4.52a28.43,28.43,0,0,1,.58-4.13,6,6,0,0,1,2.52-4,9.74,9.74,0,0,1,5.56-1.37c1.06-.12,2.07-.2,3-.23s2.06-.05,3.34-.05h4.8c1.54,0,2.8,0,3.76.1a31.13,31.13,0,0,1,3.78.59,4.32,4.32,0,0,1,3.26,2.6,14.33,14.33,0,0,1,.92,5.63h-3.2v-.24a17.82,17.82,0,0,0-.22-3,2.52,2.52,0,0,0-1-1.73,8.05,8.05,0,0,0-3-.82,50,50,0,0,0-6.08-.29c-1,0-2.42,0-4.36.14s-3.42.14-4.4.14c-2.3.19-3.76.6-4.4,1.23a5.31,5.31,0,0,0-1.2,3.28c-.16,1.55-.26,3-.28,4.24s0,2.49,0,3.64c0,3.41.34,5.75,1,7s2.48,1.93,5.42,1.93H332c2.45,0,4.16-.29,5.12-.87s1.44-2,1.44-4.18V101.2h3.36c0,3.39-.54,5.69-1.6,6.9S336.79,109.92,333,109.92Z"/><path class="cls-9" d="M373.08,107.64a4.19,4.19,0,0,1-1.73,1.74,7,7,0,0,1-2.58.62l-5.17.12h-2.43q-5,0-6.58-1.42a5.25,5.25,0,0,1-1.62-4.18c0-2,.37-3.45,1.12-4.28a4.7,4.7,0,0,1,3.13-1.44c1.35-.13,2.55-.21,3.59-.24s2,0,2.91,0l5.29.16a4.29,4.29,0,0,1,4.07,2.08v-2a12.73,12.73,0,0,0-.27-2.86,2.93,2.93,0,0,0-1.25-1.78,6.81,6.81,0,0,0-3.25-.76q-2.31-.12-3.42-.12l-2.64,0a26.26,26.26,0,0,0-2.78.22,3,3,0,0,0-2.07,1,3.8,3.8,0,0,0-.55,2.24h-3q0-3,1.29-4.2A6.69,6.69,0,0,1,359,91c1.75-.17,3.36-.26,4.83-.26,1.81,0,3.32,0,4.51.1a19.46,19.46,0,0,1,3.88.66,4.16,4.16,0,0,1,2.86,2.22,10.4,10.4,0,0,1,.79,4.38v11.72h-2.81Zm-9.44,0h.8c1.37,0,2.57,0,3.61-.1a16,16,0,0,0,3.3-.58c1.16-.32,1.73-1.22,1.73-2.72,0-1.28-.39-2.1-1.18-2.46a8.13,8.13,0,0,0-2.55-.68c-.92-.09-2-.14-3.1-.14l-2.48,0c-1.92,0-3.28,0-4.06.12a8.69,8.69,0,0,0-2.15.48,2.11,2.11,0,0,0-1.27,1.1,4.49,4.49,0,0,0-.32,1.82,2.91,2.91,0,0,0,.85,2.24c.58.54,1.76.8,3.54.8Z"/><path class="cls-10" d="M391.08,94.36a4.78,4.78,0,0,1,2.18-2.64,10.87,10.87,0,0,1,5.29-1c3.56,0,6.06.44,7.48,1.33s2.13,3,2.13,6.28v.87h-2.8c0-2.34-.36-3.92-1.09-4.75s-2.3-1.25-4.69-1.25h-1q-4.06,0-5.8,1.14t-1.74,4.94v10.52h-2.8V91h2.8Z"/><path class="cls-11" d="M424.4,107.28q.64.12,2,.24c.94.08,2,.12,3.32.12h1.52c1.39,0,2.48,0,3.28-.12a7.13,7.13,0,0,0,2.16-.54,3,3,0,0,0,1.4-1.1,3.44,3.44,0,0,0,.52-1.68h3q0,3.72-3,4.82a22.4,22.4,0,0,1-7.7,1.1,45.58,45.58,0,0,1-7.64-.46,6.49,6.49,0,0,1-4.06-2.48c-1.05-1.34-1.58-3.58-1.58-6.7,0-3.86.74-6.46,2.22-7.78s4.16-2,8.05-2h1.91a34.71,34.71,0,0,1,6.81.5,5.79,5.79,0,0,1,3.64,2.47c.89,1.32,1.33,3.4,1.33,6.27v1H420.44a10,10,0,0,0,.76,4.3A4.26,4.26,0,0,0,424.4,107.28Zm6.52-14.08h-2.2a29.66,29.66,0,0,0-4.12.26,5.36,5.36,0,0,0-2.7,1,3.6,3.6,0,0,0-1.18,1.76,8.54,8.54,0,0,0-.28,2.27h18.2a9.18,9.18,0,0,0-.24-2.21,3.26,3.26,0,0,0-1-1.64,5.23,5.23,0,0,0-2.26-1.06A17.42,17.42,0,0,0,430.92,93.2Z"/><path class="cls-8" d="M492.28,109.92l-6.88.24h-3l-5.92-.24q-7.11-.72-7.12-7.65l-.16-5.09c0-2,0-3.53.06-4.52a29.91,29.91,0,0,1,.58-4.13,6,6,0,0,1,2.52-4A9.79,9.79,0,0,1,478,83.16c1.07-.12,2.08-.2,3-.23s2.06-.05,3.34-.05h4.8c1.55,0,2.8,0,3.76.1a31.13,31.13,0,0,1,3.78.59,4.3,4.3,0,0,1,3.26,2.6,14.15,14.15,0,0,1,.92,5.63h-3.2v-.24a16.84,16.84,0,0,0-.22-3,2.45,2.45,0,0,0-1-1.73,7.94,7.94,0,0,0-3-.82,49.78,49.78,0,0,0-6.08-.29c-1,0-2.41,0-4.36.14s-3.41.14-4.4.14c-2.29.19-3.76.6-4.4,1.23a5.31,5.31,0,0,0-1.2,3.28c-.16,1.55-.25,3-.28,4.24s0,2.49,0,3.64c0,3.41.34,5.75,1,7s2.49,1.93,5.42,1.93h12.2c2.46,0,4.16-.29,5.12-.87s1.44-2,1.44-4.18V101.2h3.36q0,5.08-1.6,6.9C498.5,109.32,496.07,109.92,492.28,109.92Z"/><path class="cls-7" d="M515.84,109.84H513V82.92h2.8Z"/><path class="cls-7" d="M531,86.44h-2.8V82.92H531Zm0,23.4h-2.8V91H531Z"/><path class="cls-10" d="M546.24,94.92a5,5,0,0,1,3.08-3.44,18.73,18.73,0,0,1,5.76-.72h.36a32.13,32.13,0,0,1,4.94.32,7.36,7.36,0,0,1,3.4,1.44,4.85,4.85,0,0,1,1.8,2.52,13.3,13.3,0,0,1,.38,3.48v11.32h-2.8v-11c0-2.34-.62-3.86-1.88-4.54a12.74,12.74,0,0,0-5.84-1,17.9,17.9,0,0,0-6.86,1q-2.34,1-2.34,5v10.6h-2.8V91h2.8Z"/><path class="cls-7" d="M581.16,86.44h-2.8V82.92h2.8Zm0,23.4h-2.8V91h2.8Z"/><path class="cls-12" d="M607.92,110l-3.12,0q-6.19,0-9-1.8T593,100.6a31.61,31.61,0,0,1,.18-3.76,7.59,7.59,0,0,1,1.2-3.06,5.79,5.79,0,0,1,3.34-2.34,18.29,18.29,0,0,1,5.4-.72l1.68,0A55.75,55.75,0,0,1,611,91a6.78,6.78,0,0,1,3.76,1.74c1.1,1,1.64,2.6,1.64,4.84h-2.92a5,5,0,0,0-.4-2.14,2.83,2.83,0,0,0-1.24-1.32,7.52,7.52,0,0,0-2.44-.68,32.45,32.45,0,0,0-4.12-.22h-.48a40.16,40.16,0,0,0-4.06.14,10,10,0,0,0-2.48.7,2.85,2.85,0,0,0-1.72,1.76,10.67,10.67,0,0,0-.46,2.18c0,.66-.08,1.34-.08,2.06v.56c0,2.46.33,4.12,1,5a4,4,0,0,0,2.66,1.56,29.48,29.48,0,0,0,3.08.34c.94.06,1.94.08,3,.08.59,0,1.29,0,2.1,0a17.43,17.43,0,0,0,3.58-.58c1.58-.37,2.36-1.66,2.36-3.88h2.92q0,4-2.26,5.46A12,12,0,0,1,607.92,110Z"/></g></g></svg>